<svg xmlns="http://www.w3.org/2000/svg" xmlns:xlink="http://www.w3.org/1999/xlink" version="1.1" x="0px" y="0px" viewBox="0 0 100 125" enable-background="new 0 0 100 100" xml:space="preserve"><path d="M81.603,64.268c-0.12,0-0.24-0.043-0.336-0.13c-0.204-0.186-0.22-0.501-0.034-0.706l3.358-3.705  c0.187-0.204,0.503-0.219,0.706-0.034c0.204,0.186,0.22,0.501,0.034,0.706l-3.358,3.705C81.874,64.212,81.738,64.268,81.603,64.268z  "/><path d="M87.924,62.749l-1.62-4.168l-3.015-1.614c0.002-0.111,0.017-0.222,0.007-0.334  c-0.076-0.913-0.524-1.735-1.261-2.316L65.282,41.11l1.232-0.545c0.89-0.393,1.45-1.042,1.577-1.825  c0.127-0.785-0.201-1.577-0.922-2.23l-7.409-6.716c-1.316-1.193-3.747-2.128-5.562-2.128l-10.278,0.056  c-1.299,0.007-2.938,0.59-4.192,1.416l-13.884-2.595c-0.326-0.061-0.663-0.056-0.99,0.015L8.032,30.214l1.062,4.886l16.33-3.55  l10.896,2.037c-0.113,1.073,0.259,2.185,1.118,2.964l5.186,4.702c1.06,0.961,1.469,2.879,0.892,4.189l-1.405,3.191  c-0.747,1.696-0.237,4.088,1.135,5.332l1.481,1.344c0.643,0.583,1.477,0.903,2.349,0.903c0.419,0,0.823-0.091,1.204-0.239  l16.44,15.971c0.641,0.624,1.482,0.967,2.368,0.967c0.953,0,1.871-0.408,2.517-1.121l8.466-9.338  c0.099-0.01,0.197-0.018,0.295-0.031l1.893,2.828l4.307,1.205l0.741,0.672l0.741,0.672L95,75.914v-6.75L87.924,62.749z   M36.57,32.616L25.409,30.53l-15.55,3.381l-0.638-2.932l15.846-3.445c0.196-0.042,0.399-0.046,0.595-0.009l13.045,2.438  c-0.054,0.054-0.118,0.106-0.168,0.161l-1.343,1.481C36.919,31.911,36.72,32.256,36.57,32.616z M47.619,55.114  c-0.774,0.166-1.623-0.005-2.219-0.546l-1.481-1.344c-1.06-0.961-1.469-2.879-0.892-4.189l1.405-3.191  c0.747-1.696,0.237-4.088-1.135-5.333l-5.186-4.702c-1.021-0.926-1.099-2.51-0.173-3.531l1.343-1.481  c1.012-1.117,3.14-2.067,4.647-2.075l10.3-0.056c1.518,0,3.744,0.856,4.861,1.869l7.409,6.716c0.462,0.418,0.677,0.891,0.606,1.33  c-0.071,0.438-0.424,0.818-0.994,1.07l-1.717,0.759l-0.476-0.375c-0.636-0.502-1.447-0.778-2.285-0.778  c-1.066,0-2.074,0.438-2.765,1.2c-0.942,1.04-1.151,2.517-0.662,3.76c-0.197,0.186-0.383,0.37-0.543,0.547l-3.694,4.075l0,0  c-1.191-1.079-3.319-0.807-4.574,0.578l-1.343,1.481C46.99,52.069,46.866,53.792,47.619,55.114z M54.512,52.705  c0.129-0.143,0.231-0.302,0.316-0.471c0.813-0.33,1.724-0.587,2.63-0.587c0.799,0,1.487,0.196,2.107,0.602  c2.003,1.307,5.621,8.514,7.06,11.802c0.072,0.165,0.035,0.311,0.008,0.382c-0.028,0.072-0.101,0.203-0.268,0.276  c-0.062,0.027-0.129,0.041-0.197,0.041c-0.199,0-0.379-0.117-0.459-0.3c-1.493-3.415-4.987-10.254-6.691-11.366  c-0.453-0.294-0.987-0.443-1.587-0.443c-0.867,0-1.919,0.349-3.189,1.003C54.225,53.263,54.309,52.929,54.512,52.705z   M57.431,53.641c0.408,0,0.754,0.095,1.042,0.282c1.215,0.793,4.396,6.525,6.32,10.928c0.246,0.563,0.797,0.899,1.375,0.899  c0.2,0,0.404-0.04,0.6-0.126c0.76-0.331,1.105-1.216,0.773-1.975c-0.045-0.104-4.6-10.393-7.43-12.238  c-0.846-0.553-1.755-0.764-2.654-0.764c-0.827,0-1.643,0.183-2.396,0.439c-0.004-0.111-0.002-0.221-0.021-0.336  c-0.063-0.394-0.216-0.775-0.432-1.129l3.795-4.186c0.097-0.106,0.207-0.217,0.321-0.329c0.096,0.122,0.188,0.247,0.301,0.357  L73.753,59.77l-5.836,6.438c-0.88,0.973-2.405,0.971-3.284-0.002L55.18,55.742c-0.305-0.338-0.536-0.723-0.697-1.107  C55.699,53.985,56.682,53.641,57.431,53.641z M68.865,71.117c-0.888,0.98-2.5,1.033-3.447,0.109l-16.51-16.038  c-0.996-0.968-1.047-2.591-0.115-3.619l1.343-1.481c0.533-0.588,1.272-0.939,1.978-0.939c0.464,0,0.873,0.149,1.184,0.431  c0.409,0.371,0.678,0.843,0.756,1.33c0.072,0.445-0.028,0.845-0.281,1.124c-0.924,1.02-0.632,2.942,0.666,4.379l9.453,10.463  c1.263,1.397,3.504,1.397,4.767,0.004l5.813-6.412l1.065,1.035c0.382,0.372,0.84,0.63,1.331,0.789L68.865,71.117z M76.233,60.785  L59.723,44.747c-0.995-0.967-1.046-2.59-0.114-3.619c0.502-0.554,1.24-0.872,2.024-0.872c0.614,0,1.205,0.2,1.666,0.563  l18.117,14.282c0.517,0.407,0.83,0.98,0.883,1.614c0.053,0.633-0.161,1.25-0.603,1.737l-2.016,2.223  C78.792,61.655,77.182,61.709,76.233,60.785z M84.24,65.323l-3.355-0.938l-1.514-2.263c0.391-0.189,0.752-0.445,1.05-0.774  l2.016-2.223c0.304-0.335,0.527-0.715,0.674-1.12l2.396,1.283l1.262,3.248L84.24,65.323z M85.979,66.384l-0.741-0.672l0.888-0.979  l1.128-1.243l0.741,0.672L85.979,66.384z M94,73.657l-7.28-6.602l2.015-2.222L94,69.607V73.657z"/><path d="M8.539,37.844c0.336,0.545,0.673,0.999,0.972,1.402c0.729,0.981,1.168,1.573,1.168,2.671  c0,1.181-0.96,2.142-2.141,2.142c-1.182,0-2.143-0.961-2.143-2.142c0-1.097,0.439-1.689,1.168-2.669  C7.863,38.844,8.201,38.39,8.539,37.844 M8.538,35.633c-1.256,3.142-3.143,3.771-3.143,6.284c0,1.736,1.405,3.142,3.143,3.142  c1.735,0,3.141-1.406,3.141-3.142C11.679,39.403,9.796,38.775,8.538,35.633L8.538,35.633z"/><text x="0" y="115" fill="#000000" font-size="5px" font-weight="bold" font-family="'Helvetica Neue', Helvetica, Arial-Unicode, Arial, Sans-serif">Created by Jaime Carrion</text><text x="0" y="120" fill="#000000" font-size="5px" font-weight="bold" font-family="'Helvetica Neue', Helvetica, Arial-Unicode, Arial, Sans-serif">from the Noun Project</text></svg>